<?xml version="1.0" standalone="no"?>
<!DOCTYPE svg PUBLIC "-//W3C//DTD SVG 20010904//EN"
 "http://www.w3.org/TR/2001/REC-SVG-20010904/DTD/svg10.dtd">
<svg version="1.0" xmlns="http://www.w3.org/2000/svg"
 width="664.000000pt" height="170.000000pt" viewBox="0 0 664.000000 170.000000"
 preserveAspectRatio="xMidYMid meet">

<g transform="translate(0.000000,170.000000) scale(0.100000,-0.100000)"
fill="#000000" stroke="none">
<path d="M230 1500 c-12 -8 -15 -39 -15 -177 l0 -168 49 -89 48 -90 6 -328 c3
-180 9 -328 14 -328 5 0 8 146 6 338 l-3 337 -45 75 -45 74 -3 168 c-3 147 -1
168 12 168 14 0 16 -18 16 -124 0 -68 3 -138 6 -155 8 -40 34 -55 60 -36 17
12 19 31 23 164 2 121 6 151 17 151 11 0 14 -28 14 -145 0 -131 2 -147 20
-165 22 -22 45 -18 60 11 6 10 10 81 10 158 0 121 2 141 16 141 13 0 15 -21
12 -167 l-3 -168 -48 -80 -47 -80 0 -332 c0 -193 4 -333 9 -333 5 0 11 141 13
328 l3 327 39 65 c61 102 66 126 66 291 0 121 -3 150 -16 163 -18 18 -32 20
-54 6 -12 -7 -16 -41 -20 -162 -3 -92 -9 -153 -15 -153 -6 0 -12 61 -15 153
-5 153 -10 172 -45 172 -35 0 -40 -19 -45 -172 -6 -196 -23 -198 -31 -4 -6
167 -19 198 -69 166z"/>
<path d="M825 1501 c-104 -46 -166 -283 -110 -417 7 -18 32 -53 54 -77 l41
-44 1 -304 c1 -167 4 -315 9 -329 l7 -25 7 26 c4 14 6 166 4 337 l-3 311 -42
43 c-55 56 -73 102 -73 185 0 161 62 273 151 273 77 0 136 -91 146 -225 9
-120 -1 -160 -58 -220 l-49 -52 0 -339 c0 -223 4 -334 10 -324 6 9 10 144 10
329 l0 314 41 44 c22 24 46 59 54 76 48 115 11 310 -73 390 -32 31 -92 44
-127 28z"/>
<path d="M1290 909 l0 -381 188 4 c186 3 188 3 252 34 84 40 135 91 174 173
29 62 31 73 31 176 0 93 -4 118 -23 159 -32 71 -82 128 -142 160 -85 46 -139
56 -317 56 l-163 0 0 -381z m333 287 c150 -35 229 -155 214 -323 -8 -78 -29
-128 -74 -175 -58 -60 -119 -80 -255 -86 l-118 -5 0 302 0 301 88 0 c48 0 113
-6 145 -14z"/>
<path d="M2080 1255 l0 -35 50 0 50 0 0 -310 0 -310 -50 0 -50 0 0 -35 0 -35
150 0 150 0 0 35 0 35 -50 0 -50 0 0 310 0 310 50 0 50 0 0 35 0 35 -150 0
-150 0 0 -35z"/>
<path d="M2560 910 l0 -380 45 0 45 0 0 342 c0 188 3 338 7 334 4 -3 86 -156
183 -339 l176 -332 67 -3 67 -3 0 381 0 380 -50 0 -50 0 0 -312 0 -313 -164
310 -165 310 -80 3 -81 3 0 -381z"/>
<path d="M3360 910 l0 -380 250 0 250 0 0 40 0 40 -202 2 -203 3 -3 143 -3
142 206 0 205 0 0 45 0 45 -202 2 -203 3 0 105 0 105 203 3 202 2 0 40 0 40
-250 0 -250 0 0 -380z"/>
<path d="M4030 910 l0 -380 240 0 240 0 0 40 0 40 -190 0 -190 0 0 340 0 340
-50 0 -50 0 0 -380z"/>
<path d="M4590 1255 l0 -35 50 0 50 0 0 -310 0 -310 -50 0 -50 0 0 -35 0 -35
150 0 150 0 0 35 0 35 -50 0 -50 0 0 310 0 310 50 0 50 0 0 35 0 35 -150 0
-150 0 0 -35z"/>
<path d="M5070 910 l0 -380 45 0 45 0 2 340 3 340 180 -340 180 -340 63 0 62
0 0 380 0 380 -45 0 -45 0 -2 -312 -3 -312 -165 312 -165 312 -77 0 -78 0 0
-380z"/>
<path d="M5860 910 l0 -380 255 0 255 0 0 40 0 40 -205 0 -205 0 0 145 0 145
203 2 202 3 3 43 3 42 -205 0 -206 0 0 110 0 110 205 0 205 0 0 40 0 40 -255
0 -255 0 0 -380z"/>
<path d="M6100 393 c1 -5 7 -19 15 -33 8 -14 14 -30 15 -36 0 -8 -447 -13
-1632 -18 -2020 -8 -3210 -17 -3203 -25 4 -3 1090 -10 2415 -16 1325 -5 2411
-13 2415 -17 4 -3 -1 -20 -10 -38 -9 -18 -15 -34 -12 -36 2 -2 61 21 131 52
69 31 125 58 124 60 -3 2 -155 70 -225 100 -18 8 -33 11 -33 7z"/>
</g>
</svg>
